# xmcd
#
# Track frame offsets: 
#        150
#        22520
#        43172
#        63697
#        85290
#        108642
#        128242
#        146867
#        165385
#        185000
#
# Disc length: 2770 seconds
#
# Revision: 1
# Processed by: cddbd v1.5.2PL0 Copyright (c) Steve Scherf et al.
# Submitted via: ExactAudioCopyFreeDBPlugin 1.0
#
DISCID=8b0ad00a
DTITLE=Eddie Santiago - Serie Azul Tropical
DYEAR=2003
DGENRE=Salsa
TTITLE0=Que Locura Enamorarme
TTITLE1=anoche Valió La Pena
TTITLE2=Antídoto Y Veneno
TTITLE3=El Cielo Lloró
TTITLE4=Todo Empezó
TTITLE5=Tu Me Quemas
TTITLE6=Me Fallaste
TTITLE7=Moría de Las Ganas
TTITLE8=Tu Me Haces Falta
TTITLE9=Ahora
EXTD=YEAR: 2003
EXTT0=
EXTT1=
EXTT2=
EXTT3=
EXTT4=
EXTT5=
EXTT6=
EXTT7=
EXTT8=
EXTT9=
PLAYORDER=
